<svg xmlns="http://www.w3.org/2000/svg" viewBox="0 0 139.67 238.7"><defs><style>.cls-1{fill:#d0d1d4;}.cls-2{fill:#eaebef;}.cls-3{fill:#e6a38e;}.cls-4{fill:#efc5b4;}.cls-5{fill:#eab4a0;}.cls-6{fill:#e3977e;}.cls-7{fill:#bc7874;}.cls-8{fill:#4d2d34;}.cls-9{fill:#fcf9fb;}.cls-10{fill:#efc099;}.cls-11{fill:#d89588;}.cls-12{fill:#834647;}.cls-13{fill:#5c4c76;}.cls-14{fill:#685785;}.cls-15{fill:#c7a684;}.cls-16{fill:#d99688;}.cls-17{fill:#c97568;}.cls-18{fill:#f2ccaa;}.cls-19{fill:#eec1a5;}.cls-20{fill:#eab394;}.cls-21{fill:#f7f9fc;}.cls-22{fill:#d4e2ed;}.cls-23{fill:#020608;}.cls-24{fill:#fff;}</style></defs><title>вид сбоку Ресурс 19</title><g id="Слой_2" data-name="Слой 2"><g id="перс_8" data-name="перс 8"><g id="вид_сбоку" data-name="вид сбоку"><g id="усы_задние" data-name="усы задние"><path class="cls-1" d="M125.36,78.37h-4.48A23.45,23.45,0,0,0,97.5,101.55h0v47.18h3.27a16.41,16.41,0,0,0,16.4-16.41v-7.48l.14,0V98.68a6,6,0,0,1,6-6h2.06Z"/><path class="cls-2" d="M125.5,78.45a8.07,8.07,0,0,0-5.22,1.91h5.22V94.68h0a8.12,8.12,0,0,0,0-16.23Z"/></g><g id="Борода_1_задняя" data-name="Борода 1 задняя"><rect class="cls-1" x="77.24" y="66.93" width="23.09" height="104.1" rx="11.55" transform="translate(177.58 237.96) rotate(180)"/></g><g id="Лев_Рука" data-name="Лев Рука"><path id="леВ_рука-2" data-name="леВ рука" class="cls-3" d="M71.08,115.22h0a15.59,15.59,0,0,1,15.59,15.59v47.07a0,0,0,0,1,0,0h0A31.18,31.18,0,0,1,55.49,146.7V130.81A15.59,15.59,0,0,1,71.08,115.22Z" transform="translate(165.35 279.38) rotate(170.51)"/></g><g id="Лев_Кисть" data-name="Лев Кисть"><g id="Лев_Кисть-2" data-name="Лев Кисть"><rect class="cls-3" x="63.15" y="175.82" width="10.37" height="24.16" rx="5.19" transform="translate(-22.66 9.87) rotate(-7.09)"/><rect class="cls-4" x="68.21" y="178.02" width="10.37" height="28.26" rx="5.19" transform="translate(-23.15 10.52) rotate(-7.09)"/><rect class="cls-5" x="75.73" y="183.95" width="10.37" height="28.26" rx="5.19" transform="translate(-23.82 11.5) rotate(-7.09)"/><circle class="cls-3" cx="78.05" cy="179.44" r="15.87"/><rect class="cls-3" x="82.15" y="180.97" width="10.37" height="28.26" rx="5.19" transform="translate(-23.41 12.27) rotate(-7.09)"/><path class="cls-5" d="M86.36,182.34a7.37,7.37,0,0,0,2.62-.82l5.67,4.5a5.09,5.09,0,0,0,7.13-.81h0a5.09,5.09,0,0,0-.82-7.13l-10.39-8.25h0a7.22,7.22,0,0,0-5.84-2,7.29,7.29,0,1,0,1.65,14.48Z"/></g></g><g id="лев_нога" data-name="лев нога"><g id="Лев_Нога-2" data-name="Лев Нога"><rect class="cls-6" x="54.73" y="176.31" width="33.83" height="58.82" rx="16.42"/><rect class="cls-7" x="54.73" y="213.78" width="33.83" height="2.55"/></g></g><g id="левый_ботинок" data-name="левый ботинок"><g id="левый_ботинок-2" data-name="левый ботинок"><rect class="cls-8" x="54.73" y="216.33" width="36.84" height="20.37"/><path class="cls-8" d="M113.26,236.7v-.15A20.28,20.28,0,0,0,93,216.33H84.72a20.29,20.29,0,0,0-20.23,20.22s0,.1,0,.15Z"/><rect class="cls-9" x="86.01" y="218.35" width="16.54" height="4.87" rx="2.44"/><rect class="cls-9" x="92.93" y="224.64" width="16.54" height="4.87" rx="2.44"/></g></g><g id="Пр_Нога" data-name="Пр Нога"><g id="Пр_Нога-2" data-name="Пр Нога"><path class="cls-10" d="M44.82,176.31H78.65a0,0,0,0,1,0,0v42.4a16.42,16.42,0,0,1-16.42,16.42h-1a16.42,16.42,0,0,1-16.42-16.42v-42.4A0,0,0,0,1,44.82,176.31Z"/><rect class="cls-11" x="44.82" y="215.78" width="33.83" height="2.55"/></g></g><g id="правый_ботинок" data-name="правый ботинок"><g id="правый_ботинок-2" data-name="правый ботинок"><rect class="cls-12" x="44.82" y="218.33" width="33.83" height="20.37"/><path class="cls-12" d="M103.35,238.7s0-.1,0-.15a20.28,20.28,0,0,0-20.23-20.22H74.81a20.28,20.28,0,0,0-20.22,20.22s0,.1,0,.15Z"/><rect class="cls-9" x="76.1" y="220.35" width="16.54" height="4.87" rx="2.44"/><rect class="cls-9" x="83.03" y="226.64" width="16.54" height="4.87" rx="2.44"/></g></g><g id="трусы"><g id="трусы-2" data-name="трусы"><polygon class="cls-13" points="54.76 175.38 54.76 201.46 54.76 205.14 88.59 205.14 88.59 175.38 54.76 175.38"/><polygon class="cls-14" points="44.83 175.38 44.83 201.46 44.83 205.14 78.65 205.14 78.65 175.38 44.83 175.38"/><rect class="cls-14" x="44.82" y="175.38" width="43.77" height="25.96"/><rect class="cls-14" x="37.9" y="175.57" width="19.84" height="25.44" rx="9.77"/></g></g><g id="торс"><g id="торс-2" data-name="торс"><path class="cls-10" d="M94.28,144.84c0-16.7-.78-30.08-5.72-30.19v-.35H44.82v61.08H88.56C91.89,173.14,94.28,161.54,94.28,144.84Z"/><rect class="cls-15" x="71.08" y="135.13" width="9.29" height="6.52" rx="3.26"/><rect class="cls-16" x="84.09" y="166.07" width="7.23" height="4.96" rx="2.48"/></g></g><g id="Тень_бородка_2" data-name="Тень бородка 2"><path id="Тень_бородка_2-2" data-name="Тень бородка 2" class="cls-11" d="M68.21,159.74a8.67,8.67,0,0,1-8.65-8.65V64.28A8.66,8.66,0,0,1,60.21,61a8.62,8.62,0,0,0-2.46,6v86.82a8.64,8.64,0,0,0,16.64,3.25A8.59,8.59,0,0,1,68.21,159.74Z"/></g><g id="тень_бородка_1" data-name="тень бородка 1"><path id="тень_бородка_1-2" data-name="тень бородка 1" class="cls-11" d="M83.24,172.62h0A11.58,11.58,0,0,1,71.7,161.07v-81A11.56,11.56,0,0,1,77,70.35a11.57,11.57,0,0,0-8.53,11.13v81A11.58,11.58,0,0,0,80.05,174h0a11.41,11.41,0,0,0,6.21-1.84A11.13,11.13,0,0,1,83.24,172.62Z"/></g><g id="голова"><g id="голова-2" data-name="голова"><path class="cls-10" d="M127.8,68.77,115.69,56.11l-5.35-22.06A33,33,0,0,0,70.55,9.8l0-.35H57A48.33,48.33,0,0,0,8.84,57.64V72.38A48.34,48.34,0,0,0,57,120.57H84.65a40.21,40.21,0,0,0,40.21-40.21V78.11a6.34,6.34,0,0,0,.93-.73l1.86-1.78A4.84,4.84,0,0,0,127.8,68.77Z"/><path class="cls-11" d="M92.82,112H65.19A48.34,48.34,0,0,1,17,63.79V49.05a47.94,47.94,0,0,1,9.48-28.61A48.17,48.17,0,0,0,8.84,57.64V72.38A48.34,48.34,0,0,0,57,120.57H84.65a40.15,40.15,0,0,0,32.91-17.12A40,40,0,0,1,92.82,112Z"/><path class="cls-17" d="M124.61,74.26A6.4,6.4,0,0,1,119.7,72h-.08a6.43,6.43,0,0,0,5.24,6.31v-.17a6.34,6.34,0,0,0,.93-.73l1.86-1.78a4.76,4.76,0,0,0,1.43-3.15A6.39,6.39,0,0,1,124.61,74.26Z"/></g></g><g id="правая_кисть" data-name="правая кисть"><g id="правая_кисть-2" data-name="правая кисть"><rect class="cls-10" x="21.43" y="172.84" width="10.37" height="24.16" rx="5.19" transform="translate(20.41 -1.8) rotate(6.29)"/><rect class="cls-18" x="25.36" y="176.09" width="10.37" height="28.26" rx="5.19" transform="translate(21.02 -2.2) rotate(6.29)"/><rect class="cls-19" x="31.31" y="183.6" width="10.37" height="28.26" rx="5.19" transform="translate(21.87 -2.81) rotate(6.29)"/><circle class="cls-20" cx="38.02" cy="178.93" r="15.87"/><rect class="cls-20" x="38.24" y="182.18" width="10.37" height="28.26" rx="5.19" transform="translate(21.76 -3.58) rotate(6.29)"/><rect class="cls-20" x="45.9" y="164.96" width="10.37" height="28.26" rx="5.19" transform="translate(-100.78 71.3) rotate(-38.71)"/></g></g><g id="пр_рука" data-name="пр рука"><path id="пр_рука-2" data-name="пр рука" class="cls-20" d="M59.14,115.67h0a0,0,0,0,1,0,0v47.07a15.59,15.59,0,0,1-15.59,15.59h0A15.59,15.59,0,0,1,28,162.74V146.85a31.18,31.18,0,0,1,31.18-31.18Z" transform="translate(21.31 -4.69) rotate(8.16)"/></g><g id="волосы_задние" data-name="волосы задние"><g id="волосы_задние-2" data-name="волосы задние"><path class="cls-21" d="M70.72,0H68.65A68.66,68.66,0,0,0,0,68.65v98.19H10.68a60,60,0,0,0,60-60V22.86A13.52,13.52,0,0,1,84.24,9.34h0A9.34,9.34,0,0,0,74.91,0Z"/><path class="cls-2" d="M74.91,0H68.65a68.29,68.29,0,0,0-30,6.88S25.33,13.25,16.09,24.49c12,.88,20.83,7.19,22.59,20.65v8.28A60.07,60.07,0,0,1,0,109.54v57.3H10.68a60,60,0,0,0,60-60V22.86A13.52,13.52,0,0,1,84.24,9.34,9.34,9.34,0,0,0,74.91,0Z"/><path class="cls-22" d="M74.91,0H68.65A68.57,68.57,0,0,0,53.94,1.6c-5.54.7-17.41,5.34-24.28,10.68,10.31,1,23.28,6.43,24.28,30.45V75A60.06,60.06,0,0,1,0,134.77v32.07H10.68a60,60,0,0,0,60-60V22.86A13.52,13.52,0,0,1,84.24,9.34,9.34,9.34,0,0,0,74.91,0Z"/></g></g><g id="уши"><g id="уши-2" data-name="уши"><circle class="cls-10" cx="59.74" cy="69.97" r="13.58"/><circle class="cls-11" cx="59.74" cy="69.97" r="5.13"/></g></g><g id="борода_2_передняя" data-name="борода 2 передняя"><g id="борода_2" data-name="борода 2"><rect class="cls-2" x="59.56" y="55.63" width="17.29" height="104.1" rx="8.65" transform="translate(136.42 215.37) rotate(-180)"/><path class="cls-22" d="M69,151V64.2a8.66,8.66,0,0,0-4.64-7.65,8.52,8.52,0,0,1,3.83-.92,8.68,8.68,0,0,1,8.64,8.65v86.81a8.62,8.62,0,0,1-12.65,7.65A8.65,8.65,0,0,0,69,151Z"/></g></g><g id="борода_1_передняя" data-name="борода 1 передняя"><g id="борода_1" data-name="борода 1"><rect class="cls-2" x="71.7" y="68.52" width="23.09" height="104.1" rx="11.55" transform="translate(166.49 241.13) rotate(-180)"/><path class="cls-22" d="M83.24,68.52a11.29,11.29,0,0,0-3.19.46,11.58,11.58,0,0,1,8.36,11.08v81a11.59,11.59,0,0,1-8.36,11.09,11.52,11.52,0,0,0,14.74-11.09v-81A11.58,11.58,0,0,0,83.24,68.52Z"/><rect class="cls-21" x="75.9" y="84.28" width="6.25" height="52.72" rx="3.13"/></g></g><g id="усы_спереди" data-name="усы спереди"><path class="cls-2" d="M125.5,80.37H112.87a23.45,23.45,0,0,0-23.38,23.18h0v47.18h3.26a16.41,16.41,0,0,0,16.41-16.41v-7.48l.14,0V100.68a6,6,0,0,1,6-6h10.2Z"/><rect class="cls-22" x="94.52" y="116.91" width="8.45" height="27.07" rx="4.22"/></g><g id="бородка_1" data-name="бородка 1"><rect class="cls-21" x="112.46" y="96.75" width="27.21" height="73.51" rx="13.61"/><path class="cls-2" d="M136.1,142v-30.9a3.58,3.58,0,0,1,3.27-3.54,13.6,13.6,0,0,0-26.91,2.84v46.3a13.61,13.61,0,1,0,27.21,0V145.53A3.58,3.58,0,0,1,136.1,142Z"/><path class="cls-22" d="M133,154.52a10.4,10.4,0,0,1-10.36-10.37V108.87a10.38,10.38,0,0,1,10.12-10.35,13.49,13.49,0,0,0-6.66-1.77,13.65,13.65,0,0,0-13.61,13.61v46.3a13.61,13.61,0,1,0,27.21,0V152A10.32,10.32,0,0,1,133,154.52Z"/></g><g id="глаз"><circle class="cls-23" cx="98.49" cy="59.12" r="5.58"/></g><g id="бровь"><g id="бровь-2" data-name="бровь"><rect class="cls-2" x="75.9" y="33.4" width="32.24" height="12.7" rx="6.35"/><path class="cls-24" d="M106.35,35.35H95.56A2.53,2.53,0,0,0,93,37.87v.49a2.52,2.52,0,0,0,2.52,2.52H108a5.93,5.93,0,0,0,.11-1.13A6.32,6.32,0,0,0,106.35,35.35Z"/></g></g></g></g></g></svg>